<svg id="5ELDKRj5wZbLqJLcnm4u55EGcMqh8HiNzJsH3mxC1HMx1jA7"  width="64" height="64">
 <circle cx="32" cy="32" r="32" fill="#eee"></circle><circle cx="32" cy="8" r="5" fill="hsl(174, 35%, 53%)"></circle>
 <circle cx="32" cy="20" r="5" fill="hsl(281, 35%, 53%)"></circle>
 <circle cx="21.607695154586736" cy="14" r="5" fill="hsl(16, 35%, 75%)"></circle>
 <circle cx="11.215390309173472" cy="20" r="5" fill="hsl(180, 35%, 35%)"> </circle>
 <circle cx="21.607695154586736" cy="26" r="5" fill="hsl(219, 35%, 75%)"></circle>
 <circle cx="11.215390309173472" cy="32" r="5" fill="hsl(320, 35%, 53%)"></circle>
 <circle cx="11.215390309173472" cy="44" r="5" fill="hsl(174, 35%, 53%)"></circle>
 <circle cx="21.607695154586736" cy="38" r="5" fill="hsl(281, 35%, 53%)"></circle>
 <circle cx="21.607695154586736" cy="50" r="5" fill="hsl(16, 35%, 75%)"></circle>
 <circle cx="32" cy="56" r="5" fill="hsl(180, 35%, 35%)"></circle>
 <circle cx="32" cy="44" r="5" fill="hsl(219, 35%, 75%)"></circle>
 <circle cx="42.392304845413264" cy="50" r="5" fill="hsl(320, 35%, 53%)"></circle>
 <circle cx="52.78460969082653" cy="44" r="5" fill="hsl(174, 35%, 53%)"></circle>
 <circle cx="42.392304845413264" cy="38" r="5" fill="hsl(281, 35%, 53%)"></circle>
 <circle cx="52.78460969082653" cy="32" r="5" fill="hsl(16, 35%, 75%)"></circle>
 <circle cx="52.78460969082653" cy="20" r="5" fill="hsl(180, 35%, 35%)"></circle>
 <circle cx="42.392304845413264" cy="26" r="5" fill="hsl(219, 35%, 75%)"></circle>
 <circle cx="42.392304845413264" cy="14" r="5" fill="hsl(320, 35%, 53%)"></circle>
 <circle cx="32" cy="32" r="5" fill="hsl(118, 35%, 15%)"></circle>
</svg>